<svg version="1.1" xmlns="http://www.w3.org/2000/svg" style="display: block;" viewBox="0 0 1948 1528" width="487" height="382">
<defs>
	<linearGradient id="Gradient1" gradientUnits="userSpaceOnUse" x1="588.896" y1="466.084" x2="581.044" y2="460.576">
		<stop class="stop0" offset="0" stop-opacity="0.968627" stop-color="rgb(242,239,242)"/>
		<stop class="stop1" offset="1" stop-opacity="1" stop-color="rgb(236,234,236)"/>
	</linearGradient>
</defs>
<path transform="translate(0,0)" fill="rgb(253,251,252)" d="M 1497.04 330.229 C 1506.33 329.673 1515.42 328.164 1524.75 327.807 C 1538.34 327.287 1596.61 327.898 1604.47 334.903 C 1605.17 335.524 1605.52 336.252 1605.93 337.069 C 1605.55 340.571 1605.11 341.823 1602.25 344.174 C 1596.31 349.041 1589.92 354.047 1582.64 356.678 C 1555.73 366.401 1500.93 349.444 1475.48 362.99 C 1467.58 367.195 1463.23 378.436 1458.18 385.522 C 1446.61 401.77 1426.22 410.26 1406.59 407.996 C 1393.5 406.488 1380.06 397.937 1366.84 402.233 C 1351.36 407.263 1334.95 423.865 1321 432.949 C 1296.36 448.665 1271.45 463.961 1246.29 478.832 C 1227.36 489.917 1207.91 500.71 1188.34 510.622 C 1175.23 517.266 1160.75 521.888 1149.02 530.955 C 1137.01 540.246 1141.23 556.547 1133.08 568.203 C 1125.87 578.516 1114.32 583.911 1105.7 592.622 C 1105.74 597.858 1105.68 603.236 1106.7 608.388 C 1114.64 648.577 1155.63 712.221 1184.67 740.848 C 1207.84 763.676 1240.12 793.434 1270.96 804.026 C 1276.9 802.537 1282.51 801.235 1287.85 798.097 L 1290.53 800.354 C 1281.1 806.438 1273.54 810.501 1262.12 808.125 C 1254.92 806.629 1248.07 803.106 1242 799.048 C 1233.08 793.079 1200.71 762.651 1191.65 767.184 C 1191.63 770.31 1192.45 771.767 1194.7 774.054 C 1210.92 790.55 1240.5 800.299 1256.45 814.002 C 1259.66 816.762 1263.12 820.33 1263.14 824.815 C 1263.15 827.679 1261.33 829.694 1259.34 831.565 C 1250.05 840.317 1235.25 842.591 1223.79 847.572 C 1208.01 854.434 1161.96 879.961 1156.01 894.636 C 1156.09 897.071 1155.9 897.196 1157.54 898.952 C 1160.02 899.671 1162.03 900.063 1164.37 898.699 C 1171.61 894.475 1177.19 886.676 1183.93 881.572 C 1197.06 871.629 1248.18 838.844 1263.14 841.288 C 1266.33 841.81 1269.43 843.928 1271.87 845.94 C 1277.43 850.521 1281.1 857.063 1286.29 861.996 C 1291.65 867.082 1298.71 869.42 1302.72 876.056 C 1306.56 882.386 1304.09 890.718 1302.19 897.307 C 1299.73 905.88 1296.32 914.14 1294.61 922.925 C 1288.9 952.348 1289.68 998.147 1303.97 1024.55 C 1314.17 1043.4 1328.92 1059.06 1337.8 1078.77 C 1334.93 1095.61 1327.43 1112.1 1338.11 1127.86 C 1348.74 1143.55 1370.66 1141.09 1382.96 1153.42 C 1402.2 1172.7 1411.17 1199.73 1428.3 1220.81 C 1486.69 1292.62 1528.88 1302.76 1548.06 1404.3 C 1551.27 1421.27 1555.99 1443.09 1553.18 1460.36 C 1552.58 1464.04 1551.36 1468.5 1548.18 1470.8 C 1546.02 1472.38 1543.31 1472.48 1540.8 1471.8 C 1530.01 1468.85 1523.37 1452.92 1515.38 1445.63 C 1499.67 1431.3 1481.97 1415.62 1463.9 1404.46 C 1464.11 1403.43 1464.2 1402.8 1464.9 1401.97 C 1465.75 1400.97 1469.02 1401.11 1470.38 1400.98 C 1484.31 1407.72 1498.9 1419.13 1510.77 1429.16 C 1517.53 1434.86 1533.26 1453.26 1539.83 1455.67 C 1541.75 1453.57 1542.15 1452.57 1542.53 1449.7 C 1544.07 1437.93 1540.62 1416.75 1538.36 1404.39 C 1535.78 1390.25 1532.84 1376.04 1527.37 1362.7 C 1506.44 1311.67 1456.39 1278.33 1422.48 1236.71 C 1406.48 1217.07 1395.89 1188.78 1378.42 1171.47 C 1364.64 1157.81 1343.72 1158.01 1331.41 1140.97 C 1321.17 1126.8 1323.99 1113.71 1326.45 1097.52 C 1328.78 1082.15 1317.1 1071.65 1308.68 1060.18 C 1280.83 1022.31 1276.97 967.459 1285.05 922.55 C 1287.04 911.524 1292.32 901.355 1293.87 890.249 L 1294.03 889.017 C 1284.66 878.526 1273.59 868.805 1263.81 858.534 C 1242.35 861.808 1213.15 879.983 1195.98 892.972 C 1184.42 901.714 1173.22 914.63 1158.75 918.032 C 1156.16 918.64 1153.36 918.419 1151.16 916.816 C 1147.93 914.462 1145.46 910.15 1145.13 906.161 C 1143.38 884.448 1193.36 857.543 1210.43 848.946 C 1218.7 844.783 1236.98 839.485 1242.14 831.591 C 1244 828.744 1241.9 826.406 1239.86 824.361 C 1231.91 816.383 1220.39 811.431 1211.06 805.179 C 1198.11 796.491 1185.74 786.501 1174.15 776.079 C 1131.74 737.243 1099.66 688.465 1080.8 634.139 C 1076.58 622.017 1074.37 609.298 1070.44 597.068 C 1059.94 587.619 1047.7 580.305 1034.4 575.535 C 1017.65 578.556 1002.89 585.274 987.087 591.181 C 972.932 596.47 958.818 600.753 944.107 604.143 C 921.436 609.538 898.612 614.267 875.664 618.323 C 865.2 620.158 848.464 620.171 839.121 623.955 C 827.234 628.769 819.94 645.162 809.034 652.744 C 797.411 660.825 783.911 664.181 769.937 661.657 C 754.612 658.889 739.069 650.527 730.098 637.531 C 723.563 628.064 723.866 614.282 725.916 603.327 C 728.806 587.885 737.836 580.627 750.194 572.305 L 753.901 572.821 C 749.579 576.287 745.021 579.822 741.516 584.142 C 735.275 591.835 730.963 601.401 732.1 611.497 C 733.153 620.844 739.472 630.118 746.743 635.847 C 757.021 643.945 773.822 647.307 786.631 645.74 C 804.456 643.559 810.544 628.12 820.642 615.831 C 823.777 611.963 827.879 608.994 832.533 607.223 C 847.988 601.264 877.795 601.6 896.155 597.845 C 920.496 592.866 945.669 587.088 969.397 579.664 C 983.703 575.188 1011.93 559.807 1024.71 559.231 C 1039.09 558.583 1069.54 571.999 1078 583.595 C 1085.04 593.231 1089.61 621.389 1093.77 634.393 C 1104.55 668.088 1140.9 725.067 1166.76 748.537 C 1169.02 750.586 1171.89 752.868 1175.13 752.55 C 1176.89 752.376 1176.74 752.08 1177.85 750.88 C 1177.8 747.965 1176.8 746.139 1175.07 743.805 C 1168.51 734.94 1160.1 726.898 1152.96 718.447 C 1143.89 707.713 1135.99 695.839 1128.54 683.944 C 1114.35 661.257 1094.88 620.43 1091.65 594.647 C 1088.66 570.684 1112.46 572.404 1121.36 555.91 C 1126.96 545.528 1125.91 531.736 1133.71 522.481 C 1142.9 511.568 1172.01 500.816 1185.43 493.872 C 1198.76 486.977 1212.29 479.387 1225.33 471.909 C 1251.56 456.661 1277.43 440.795 1302.91 424.322 C 1318.26 414.302 1347.96 390.41 1363.19 385.449 C 1380.52 379.801 1398.69 393.232 1416.95 391.561 C 1430.82 390.291 1443.26 382.945 1449.75 370.439 C 1452.66 364.838 1455.09 358.336 1459.24 353.534 C 1468.13 343.231 1483.36 343.811 1495.81 342.927 C 1505.35 344.291 1555.95 344.632 1563.19 341.899 C 1566.41 341.895 1569.63 341.789 1572.84 341.581 C 1576.47 341.333 1578.56 340.859 1580.96 338.082 L 1579.96 336.614 C 1559.43 329.432 1525.78 330.224 1504.37 333.845 C 1504.25 333.507 1504.21 333.126 1504.01 332.83 C 1502.34 330.416 1499.66 330.628 1497.04 330.229 z"/>
<path transform="translate(0,0)" fill="rgb(253,251,252)" d="M 1902.22 697.568 C 1915.43 635.844 1908.81 566.122 1873.84 512.209 C 1863.82 496.762 1840.38 474.397 1844.45 454.484 C 1845 451.794 1846.48 449.394 1848.91 448.031 C 1853.55 445.364 1859.11 444.765 1864.22 446.381 C 1882.25 452.223 1905.29 498.123 1913.47 515.472 C 1939.51 570.688 1950.64 631.434 1938.9 691.816 C 1937.43 699.417 1936.83 707.738 1934.18 714.994 C 1930.41 725.277 1928.07 736.086 1924.15 746.216 C 1904.27 797.619 1870.58 843.245 1831.69 881.827 C 1817.41 896.001 1796.65 910.012 1785.08 925.739 C 1776.24 937.767 1781.81 954.726 1774.46 967.773 C 1766.5 981.906 1746.99 984.273 1736.87 996.683 C 1728.8 1006.58 1727.54 1018.91 1721.85 1030 C 1700.57 1071.52 1663.84 1104.59 1621.44 1123.79 C 1580.1 1142.51 1515.02 1153.5 1470 1147.51 C 1457.19 1145.8 1423.76 1137.94 1414.13 1147.5 C 1412.94 1148.68 1412.07 1150.26 1411.5 1151.82 C 1409.62 1157.01 1412.58 1162.98 1414.98 1167.56 C 1422.96 1182.79 1434.19 1196.84 1444.92 1210.2 C 1507.87 1288.59 1566.96 1313.57 1575.45 1425.91 C 1577.18 1448.76 1577.98 1480.15 1571.37 1502.03 C 1569.36 1508.69 1566.51 1513.71 1562 1518.97 C 1557.47 1520.66 1552.91 1522.58 1548.17 1520.32 C 1535.14 1514.08 1527.64 1497.69 1518.86 1486.84 C 1512.98 1479.57 1506.52 1472.59 1500.01 1465.88 C 1486.99 1452.66 1472.74 1440.7 1457.46 1430.17 C 1434.66 1414.36 1409.85 1399.12 1384.8 1387.23 C 1304.96 1349.35 1226.72 1330.9 1160.57 1267.35 C 1147.64 1254.93 1135.51 1242.36 1125.08 1227.75 C 1119.59 1220.04 1114.89 1211.84 1110.58 1203.43 C 1100.09 1182.95 1086.68 1150.25 1057.09 1158.96 C 1042.67 1163.21 1031.12 1174.52 1017.51 1180.69 C 988.328 1193.93 907.365 1214.19 878.933 1199.96 C 876.984 1198.98 875.355 1197.6 873.757 1196.14 C 877.958 1185.14 874.409 1185.09 884.851 1176.52 L 889.679 1176.4 C 889.447 1176.58 889.243 1176.81 888.982 1176.95 C 888.279 1177.32 887.467 1177.46 886.753 1177.81 C 884.542 1178.91 883.259 1179.66 882.534 1181.98 L 883.714 1183.98 C 910.633 1190.4 957.507 1184.01 984.011 1175.72 C 995.945 1171.99 1007.85 1166.59 1019 1160.96 C 1026.79 1157.02 1044.91 1144.56 1051.71 1143.21 C 1057.29 1142.09 1062.75 1141.24 1068.46 1141.67 C 1107.08 1144.52 1109.72 1177.32 1126.13 1204.37 C 1136.38 1221.26 1151.21 1237.58 1165.47 1251.21 C 1227.22 1310.26 1293.81 1329.79 1369.28 1363 C 1416.06 1383.59 1462.27 1409.53 1500.4 1443.89 C 1510.72 1453.18 1520.99 1463.25 1528.76 1474.8 C 1533.79 1482.27 1538.11 1491.56 1544.06 1498.19 C 1546.89 1501.34 1548.85 1502.69 1552.94 1502.99 C 1554.15 1502.3 1555.17 1501.71 1555.95 1500.53 C 1561.79 1491.75 1562.49 1456.57 1562.47 1444.77 C 1562.45 1426.09 1560.31 1407.79 1556.83 1389.45 C 1544.23 1323.2 1508.79 1291.52 1463.49 1245.03 C 1444.85 1225.9 1425.61 1205.48 1411.1 1182.97 C 1405.21 1173.83 1397.65 1162.51 1396.31 1151.61 C 1395.68 1146.41 1396.58 1141.24 1399.94 1137.1 C 1405.12 1130.7 1414.9 1127.11 1422.89 1126.16 C 1433.62 1124.88 1443.73 1129.08 1454.34 1129.82 C 1482.85 1131.82 1513.57 1132.63 1541.98 1129.05 C 1605.13 1121.09 1670.19 1087.48 1703.39 1031.76 C 1711.9 1017.48 1713.51 998.373 1723.16 985.861 C 1733.83 972.02 1751.85 972.556 1763.77 957.178 C 1765.06 945.361 1764.11 929.604 1769.6 919.049 C 1776.22 906.337 1795.37 893.442 1806 883.408 C 1816.31 873.681 1826.36 863.49 1836.18 853.272 C 1852.46 836.002 1867.23 817.361 1880.31 797.557 C 1913.05 747.5 1928.54 696.677 1927.89 636.838 C 1927.66 615.908 1925.92 594.703 1921.57 574.199 C 1913.8 537.616 1897.44 503.575 1876.26 472.96 C 1871.72 466.406 1866.29 457.679 1859.61 453.321 C 1857.08 452.973 1856.7 452.816 1854.29 453.976 C 1851.67 461.963 1865.12 475.149 1869.74 481.381 C 1896.96 518.055 1910.72 558.866 1917.2 603.711 C 1915.43 614.555 1913.39 658.593 1917.5 668.37 C 1913.49 685.625 1911.49 704.119 1904.74 720.524 L 1902.98 719.831 C 1900.22 728.268 1895.23 735.617 1893.65 744.52 L 1893.46 745.621 C 1886.48 752.103 1879.44 771.537 1874.82 780.832 C 1870.99 788.543 1851.21 817.175 1844.96 823.354 C 1847.12 815.381 1857.2 805.468 1861.85 798.319 C 1875.17 777.84 1904.87 721.414 1902.22 697.568 z"/>
<path transform="translate(0,0)" fill="rgb(246,243,247)" d="M 779.79 729.471 C 788.17 729.986 794.683 730.372 802.19 734.484 C 818.473 740.999 820.959 759.452 835.899 766.093 C 844.529 769.929 855.565 769.252 864.712 772.106 C 879.827 776.822 894.951 782.22 909.776 787.779 C 920.907 791.953 931.969 796.813 943.576 799.497 C 954.931 802.123 966.156 799.422 977.589 799.253 C 997.379 798.959 1014.35 807.93 1022.31 826.419 C 1027.21 837.789 1027.67 849.599 1023.07 861.165 C 1017.67 874.78 1006.61 885.397 993.22 891.11 C 978.618 897.34 964.011 897.12 949.359 891.126 C 939.659 887.158 929.128 879.327 924.971 869.353 C 920.004 857.435 925.974 833.884 921.416 827.158 C 918.899 823.444 912.392 820.42 908.384 818.622 C 894.29 812.296 843.01 793.609 829.092 798.373 C 819.309 801.721 809.342 814.654 805.573 823.898 C 798.915 840.227 805.089 863.736 803.656 881.675 C 801.737 905.697 791.12 932.422 780.811 954.048 C 775.095 966.132 768.085 977.562 759.906 988.136 C 751.656 998.843 735.944 1009.94 732.255 1023.17 C 729.079 1034.55 737.465 1046.15 734.819 1057.58 C 731.942 1070 721.336 1078.12 727.344 1091.71 C 736.504 1112.44 776.984 1138.3 797.121 1147.83 C 806.341 1152.19 823.228 1157.49 830.488 1164.13 C 834.381 1167.69 834.6 1173 832.789 1177.64 C 831.792 1180.2 830.242 1182.6 828.815 1184.94 C 819.401 1189.57 811.929 1189.33 802.148 1185.98 C 776.289 1177.13 736.428 1147.64 716.042 1128.32 C 708.311 1120.99 701.923 1111.07 692.893 1105.36 C 683.929 1099.69 672.214 1098.4 662.166 1095.45 C 653.983 1092.95 646.113 1089.53 638.712 1085.24 L 637.294 1085.37 C 621.733 1086.9 606.878 1095.22 592.258 1100.44 C 582.034 1104.1 571.47 1106.53 560.835 1108.64 C 495.396 1121.65 427.557 1116.46 362.235 1105.44 C 346.551 1102.79 322.828 1099.97 310.128 1089.72 C 307.57 1087.66 305.632 1084.92 305.422 1081.56 C 305.301 1079.64 305.787 1078.05 306.381 1076.25 C 308.996 1071.8 311.218 1069.61 316.332 1068.36 C 320.856 1067.26 325.917 1067.11 330.515 1067.73 C 340.708 1069.11 350.818 1072.15 360.848 1074.42 C 372.282 1077 383.905 1078.97 395.421 1081.16 C 402.289 1082.47 413.676 1082.62 419.649 1084.78 L 422.466 1087.35 L 422.209 1087.09 C 418.761 1089.47 414.632 1088.49 410.54 1089.08 C 400.206 1086.9 325.99 1073.15 319.743 1074.67 C 319.012 1074.84 317.602 1076.05 316.905 1076.5 C 325.857 1082.77 342.636 1084.57 353.432 1086.85 C 422.635 1101.47 492.811 1104.75 562.618 1091.45 C 572.343 1089.59 582.229 1086.48 591.528 1083.06 C 606.788 1077.46 624.51 1066.83 641.211 1070.14 C 648.821 1071.64 655.292 1077.24 662.576 1079.79 C 674.227 1083.86 686.644 1081.61 697.557 1088.7 C 708.447 1095.76 716.196 1108.31 725.459 1117.36 C 740.934 1132.47 794.196 1168.45 814.334 1170.46 C 816.243 1170.65 816.481 1170.12 817.818 1168.93 L 817.445 1167.23 C 810.399 1159.18 795.323 1154.54 785.752 1149.88 C 767.885 1141.18 715.479 1104.53 710.167 1086.82 C 706.805 1075.62 718.017 1063.21 720.614 1052.56 C 723.689 1039.94 713.507 1028.28 717.461 1015.35 C 721.517 1002.09 736.852 991.921 745.164 981.105 C 762.183 958.958 775.731 931.998 782.915 904.995 C 786.938 889.595 789.483 873.847 790.516 857.965 C 791.261 846.003 785.679 825.535 791.718 815.468 C 796.349 807.749 817.038 782.591 824.897 780.648 C 842.572 776.279 912.345 799.604 929.395 809.794 C 936.921 822.969 929.538 836.736 931.618 850.886 C 932.919 859.742 938.302 866.99 945.448 872.125 C 955 878.99 969.157 882.008 980.727 880.037 C 990.508 878.371 999.208 871.98 1004.88 863.986 C 1010.91 855.485 1013.69 844.545 1011.75 834.239 C 1010.34 826.736 1006.73 820.054 1001.73 814.338 C 982.47 792.346 958.932 809.35 933.424 803.601 C 916.967 799.891 901.953 791.288 886.172 785.538 C 870.369 779.78 854.247 776.86 837.929 773.084 C 832.959 771.934 827.864 770.489 823.229 768.324 C 809.265 761.801 806.747 745.807 794.507 737.712 L 793.522 737.068 L 792.658 736.726 C 788.545 735.069 785.483 734.33 781.048 734.059 L 778.465 731.627 L 779.79 729.471 z"/>
<path transform="translate(0,0)" fill="rgb(224,221,225)" d="M 779.79 729.471 C 788.17 729.986 794.683 730.372 802.19 734.484 L 801.343 734.468 C 798.4 734.383 795.887 733.928 793.056 733.15 L 792.021 733.938 L 793.522 737.068 L 792.658 736.726 C 788.545 735.069 785.483 734.33 781.048 734.059 L 778.465 731.627 L 779.79 729.471 z"/>
<path transform="translate(0,0)" fill="rgb(253,251,252)" fill-opacity="0.988235" d="M 17.0711 370.163 C 25.2457 363.501 24.6428 342.204 27.1448 332.069 C 28.0791 336.497 28.521 341.006 29.0515 345.497 C 27.53 354.457 27.1576 363.47 26.0501 372.474 C 24.8849 381.947 22.9677 391.375 22.198 400.888 C 19.7502 431.139 22.0783 462.101 27.0948 491.963 C 30.6825 513.32 38.1327 533.414 38.0276 555.359 L 37.4233 556.444 C 27.5633 573.908 9.04051 579.937 15.8946 604.818 C 19.1252 616.546 29.2308 625.283 31.6848 637.055 C 34.9767 652.846 21.8587 674.62 18.2775 690.372 C 15.3934 703.058 13.5294 717.578 12.9125 730.533 C 12.5262 738.646 15.7349 746.477 15.8442 754.53 C 15.9185 760.009 14.0294 765.591 13.2917 771.024 C 12.445 777.26 13.4751 784.332 14.255 790.577 C 25.9025 883.838 97.7603 984.944 179.764 1030.75 C 183.761 1032.98 187.751 1035.55 192.481 1034.7 L 193.974 1033.04 C 193.227 1029.57 191.679 1027.89 188.951 1025.69 C 180.809 1019.1 171.327 1013.97 162.751 1007.94 C 140.997 992.628 121.294 975.702 103.751 955.717 C 55.0356 900.216 23.5697 833.927 21.2378 759.247 C 20.8935 748.218 20.5683 737.176 21.6996 726.18 C 22.9228 714.291 25.6652 702.48 28.3967 690.864 C 31.9111 675.919 34.2083 656.992 42.6152 643.906 C 42.9167 643.437 43.238 642.98 43.5599 642.524 L 44.8268 641.958 C 65.0979 632.998 88.0538 641.938 98.987 614.833 C 106.531 596.132 94.6828 573.085 117.868 562.823 C 140.907 552.626 163.936 542.412 187.217 532.728 C 197.414 528.486 207.386 523.704 217.926 520.34 C 238.162 513.882 259.947 507.491 280.841 503.711 C 290.486 501.966 306.575 502.085 314.222 496.471 L 314.8 494.609 L 313.831 492.918 C 311.889 491.337 311.007 489.808 309.845 487.609 C 314.13 486.999 318.981 485.993 323.259 487.021 C 325.957 487.669 328.401 489.021 329.855 491.453 C 332.886 496.522 330.876 502.991 329.445 508.227 C 326.994 510.503 324.024 513.214 320.827 514.304 C 307.423 518.871 290.836 518.954 276.813 521.864 C 253.799 526.638 231.315 534.319 209.083 541.836 C 195.864 546.305 122.229 575.277 118.408 584.662 C 113.721 596.175 119.557 608.92 111.24 625.389 C 100.308 647.034 83.646 648.347 63.1576 655.307 C 57.2401 657.318 53.1499 660.355 50.4869 666.053 C 44.503 678.856 42.5965 694.938 39.8617 708.749 C 20.0969 808.567 63.2376 907.091 135.019 975.604 C 141.862 982.135 148.952 989.167 156.647 994.688 C 168.438 1003.15 204.34 1020.38 208.746 1033.16 C 210.766 1039.02 208.748 1043.62 206.297 1048.88 C 201.337 1051.4 197.354 1053.06 191.602 1052.6 C 164.674 1050.45 105.223 993.505 86.8815 972.635 C 24.3578 901.97 -5.4474 808.204 4.79931 714.408 C 6.02968 703.398 8.09097 692.188 11.0254 681.502 C 14.6478 668.311 19.6594 655.227 20.5564 641.493 C 18.1589 637.19 15.3169 633.127 12.8815 628.834 C -9.74411 588.954 26.1681 574.547 27.2731 550.947 C 27.9575 536.33 21.2857 520.854 18.6416 506.482 C 12.17 471.307 7.68187 404.007 17.0711 370.163 z"/>
<path transform="translate(0,0)" fill="rgb(253,251,252)" d="M 339.512 821.32 C 341.267 825.858 343.304 830.093 346.222 834.014 C 353.385 843.639 362.03 848.063 373.772 849.687 C 386.313 851.421 400.389 849.93 410.664 841.93 C 436.583 821.749 413.591 801.547 416.51 781.789 C 418.745 766.662 442.153 748.482 452.345 736.486 C 473.161 711.985 491.661 684.951 508.36 657.471 C 512.2 651.152 516.061 644.697 519.352 638.072 C 524.545 627.619 529.835 608.167 539.267 601.488 C 548.937 594.641 567.396 592.112 578.848 594.517 C 584.8 595.768 590.171 600.124 594.648 604.046 C 604.772 612.917 613.817 623.344 623.226 632.971 C 636.576 646.45 650.11 659.746 663.823 672.855 C 684.739 692.864 716.463 711.935 731.726 735.875 C 732.12 740.351 732.991 746.541 730.792 750.598 C 729.957 752.139 729.265 753.749 728.522 755.337 C 728.155 753.22 727.873 750.733 726.921 748.791 C 724.321 743.491 716.131 735.187 710.672 733.316 C 710.464 733.244 710.25 733.19 710.039 733.127 C 683.822 712.896 659.007 690.154 635.532 666.825 C 620.591 651.976 599.22 627.127 582.518 616.133 C 576.388 612.098 570.214 610.718 562.985 611.66 C 556.557 612.498 550.773 614.846 546.735 620.118 C 538.171 631.303 532.717 647.298 525.724 659.729 C 506.602 693.72 481.434 730.66 453.868 758.088 C 445.35 766.564 429.197 780.539 431.528 793.998 C 432.235 798.081 434.11 802.27 435.151 806.33 C 438.335 818.74 437.444 831.725 430.501 842.735 C 422.562 855.324 407.735 863.423 393.488 866.551 C 378.579 869.885 362.956 867.017 350.203 858.604 C 342.966 853.844 336.285 846.038 334.052 837.526 C 334.883 828.448 335.167 819.601 336.562 810.555 C 336.552 814.976 336.649 817.918 339.512 821.32 z"/>
<path transform="translate(0,0)" fill="rgb(253,251,252)" d="M 897.259 119.071 C 910.991 123.301 920.266 132.732 927.027 145.309 C 932.141 154.824 933.801 165.811 930.626 176.231 C 922.725 202.165 894.419 204.127 886.829 223.573 C 881.548 237.104 883.443 258.034 884.98 272.367 C 886.418 285.769 888.047 300.551 891.634 313.527 C 895.532 327.626 921.369 376.023 902.681 386.615 C 899.197 388.59 894.78 388.89 890.999 387.665 C 882.566 384.931 876.994 375.592 873.474 368.024 C 860.297 339.693 850.138 290.829 850.469 259.83 C 850.61 246.594 854.464 229.033 851.234 216.382 C 847.988 203.663 830.552 197.793 826.154 184.074 C 827.659 170.351 823.055 155.141 832.329 143.252 C 832.544 142.977 832.765 142.707 832.983 142.435 L 832.206 142.844 L 833.224 142.325 C 832.262 145.137 832.339 147.243 832.664 150.187 L 832.788 151.224 C 832.323 153.911 832.132 156.806 832.103 159.536 C 831.906 178.56 844.532 184.144 855.895 196.282 C 870.61 212.002 860.68 229.904 860.426 248.437 C 860.074 274.022 872.522 352.28 889.918 369.086 C 891.166 370.292 890.875 370.297 892.727 370.246 C 896.765 361.739 884.404 332.541 881.531 322.505 C 873.814 295.546 863.134 238.82 873.289 212.469 C 875.247 207.388 878.697 203.145 882.894 199.733 C 893.218 191.341 907.8 187.969 914.368 175.335 C 919.006 166.415 917.489 155.758 914.329 146.614 C 910.083 134.325 901.923 128.226 890.594 122.765 C 890.709 121.134 890.98 120.999 891.835 119.687 L 897.259 119.071 z"/>
<path transform="translate(0,0)" fill="rgb(246,243,247)" d="M 1464.7 794.147 L 1467.44 796.25 C 1460.48 804.366 1457.94 813.953 1459.04 824.655 C 1459.92 833.253 1468.05 842.241 1474.7 847.361 C 1484.62 854.997 1497.83 859.137 1510.33 857.449 C 1521.19 855.982 1529.85 849.794 1536.3 841.133 C 1539.98 836.19 1541.44 830.391 1543.24 824.593 C 1549.46 804.577 1566.77 803.807 1584.81 800.955 C 1594.27 799.459 1605.59 797.417 1613.84 803.702 C 1623.98 811.418 1626.82 823.654 1639.4 829.701 C 1666.8 842.865 1694.49 814.392 1709.44 859.47 C 1711.86 866.767 1714.81 874.833 1715.66 882.482 C 1716.2 887.333 1716.1 891.959 1712.92 895.947 C 1700.69 911.276 1679.82 910.972 1681.76 939.849 C 1683.9 971.765 1727.54 969.347 1703.25 1013.06 C 1698.68 1015.16 1683.2 1037.41 1680.5 1042.96 L 1679.83 1043.05 C 1680.54 1040.95 1681.31 1038.98 1682.26 1036.97 C 1683.23 1034.91 1683.52 1033.27 1683.6 1031.01 C 1691.2 1013.66 1696.63 1014.43 1699.66 991.966 C 1687.67 976.26 1673.84 968.184 1673.39 946.204 C 1672.97 925.701 1684.09 917.671 1696.72 904.092 C 1701.7 898.747 1704.74 892.974 1704.21 885.451 C 1703.26 871.801 1692.74 857.558 1682.97 848.714 C 1671.48 848.769 1660.24 851.835 1648.71 849.829 C 1620.74 844.965 1613.21 816.903 1594.78 815.957 C 1589.64 815.692 1584.04 816.793 1579.02 817.792 C 1551.6 823.245 1557.15 845.006 1540.44 860.24 C 1529.92 869.837 1515.3 874.492 1501.16 873.653 C 1486.62 872.79 1471.17 865.792 1461.5 854.819 C 1453.77 846.043 1449.83 835.012 1450.61 823.308 C 1451.38 811.738 1455.99 801.76 1464.7 794.147 z"/>
<path transform="translate(0,0)" fill="rgb(253,251,252)" d="M 1167.49 47.0528 C 1170.57 48.8588 1170.64 49.5012 1172.1 52.8241 C 1179.42 56.6003 1186.96 59.8435 1194 64.1597 C 1233.6 88.4416 1282.34 132.62 1311.11 168.958 C 1329.86 192.636 1345.73 218.096 1360.85 244.187 C 1369.18 258.564 1380.54 274.108 1385.51 289.944 C 1386.93 294.451 1389.71 303.373 1387.52 307.782 C 1383.48 310.062 1382.18 314.389 1378.5 316.567 C 1378.16 313.728 1378.9 310.919 1378.66 308.105 C 1378.36 304.697 1377.6 303.939 1375.28 301.678 C 1370.93 297.273 1358.01 267.205 1353.98 259.752 C 1347.54 247.81 1340.56 236.174 1333.04 224.882 C 1299.08 172.792 1255.7 127.493 1205.13 91.3084 C 1199.76 87.5087 1194.35 83.6041 1188.52 80.5432 C 1181.02 76.6055 1172.11 73.4189 1165.44 68.1999 C 1163.29 66.5193 1161.01 64.5014 1160.78 61.6207 C 1160.38 56.4444 1164.31 50.8115 1167.49 47.0528 z"/>
<path transform="translate(0,0)" fill="rgb(253,251,252)" d="M 1335.06 789.891 C 1347.84 793.297 1360.74 800.905 1367.66 812.507 C 1373.91 822.967 1375.1 839.24 1371.96 850.876 C 1365.28 875.64 1342.66 876.57 1329.73 893.167 C 1312.77 914.93 1311.54 974.974 1317.68 1001.19 C 1321.13 1015.94 1327.52 1029.05 1334.88 1042.16 C 1339.71 1050.75 1345.77 1062.33 1356.14 1064.95 C 1362.73 1066.61 1369.74 1064.65 1376.37 1064.25 C 1394.47 1063.16 1411.95 1071.29 1421.78 1086.63 C 1426.69 1094.31 1429.65 1102.92 1433.5 1111.12 C 1433.46 1116.64 1443.09 1115.76 1444.93 1118.82 C 1444.63 1118.92 1444.35 1119.06 1444.04 1119.12 C 1438.77 1120.2 1429.2 1115.86 1424.8 1112.96 C 1422.94 1111.72 1421.09 1110.46 1419.25 1109.19 C 1411.76 1101.07 1410.37 1089.23 1404.01 1080.47 C 1391.63 1063.42 1366.49 1072.85 1349.45 1069.69 C 1338.82 1067.71 1333.83 1059.35 1328.18 1051.01 C 1302.19 1012.59 1294.04 970.022 1302.99 924.639 C 1306.14 908.662 1310.2 884.592 1324.23 874.585 C 1330.52 870.098 1338.12 867.498 1344.54 863.135 C 1353.49 857.055 1358.15 848.696 1360 838.13 C 1362.29 825.055 1355.31 813.484 1348.19 803.103 C 1348.13 802.906 1348.09 802.703 1348.01 802.513 C 1345.27 795.833 1336.12 794.174 1330.17 791.585 L 1335.06 789.891 z"/>
<path transform="translate(0,0)" fill="rgb(253,251,252)" d="M 81.1398 225.407 C 85.5206 225.916 89.3738 226.089 92.2943 229.869 C 95.2589 233.707 95.3925 239.08 94.6173 243.666 C 91.4772 262.243 76.0086 278.949 69.5815 296.855 C 45.1198 365.004 41.0099 445.938 54.2284 516.933 L 59.34 539.297 C 58.2923 541.7 58.2312 543.528 59.1102 546.088 C 60.1964 549.252 63.1251 551.926 65.3745 554.322 L 65.2934 554.373 L 64.0976 553.004 C 60.8487 554.33 59.6104 553.479 56.4301 552.162 C 54.3028 551.281 52.3005 550.107 50.1373 549.325 C 43.4499 539.297 42.1471 521.218 40.0853 509.268 C 30.2786 452.428 28.5499 404.646 40.2112 347.841 C 43.4904 331.867 46.9653 316.332 52.2472 300.875 C 56.3309 288.892 61.2267 277.2 66.9004 265.883 C 71.2934 257.247 76.4366 248.795 80.1174 239.818 C 80.9188 237.863 81.9514 235.783 81.3588 233.661 C 79.3331 232.718 78.6892 232.102 76.4349 232.732 C 69.0294 234.801 62.808 247.639 59.4225 254.003 C 57.027 255.022 57.0868 255.812 55.9911 258.096 L 54.5806 258.066 C 54.5983 257.511 54.5928 256.675 54.7087 256.093 C 57.5381 241.897 70.1087 232.864 81.1398 225.407 z"/>
<path transform="translate(0,0)" fill="rgb(253,251,252)" d="M 1113.49 962.558 C 1117.4 961.752 1121.26 961.341 1124.79 963.675 C 1128.07 965.852 1129.4 969.814 1129.93 973.528 C 1133.37 997.646 1098.14 1051.48 1119.28 1068.92 C 1123.25 1072.19 1128.36 1074.34 1132.75 1076.99 C 1143.42 1083.41 1148.04 1095.04 1149.6 1106.91 C 1150.95 1117.22 1149.45 1127.6 1142.83 1135.92 C 1136.88 1143.39 1125.39 1152.03 1126.57 1162.66 C 1129.66 1190.61 1190.25 1254.06 1213.07 1271.09 C 1223.48 1278.85 1234.44 1285.92 1245.06 1293.39 C 1242.61 1295.85 1240.69 1295.63 1237.4 1296.14 C 1220.69 1287.11 1203.75 1273.61 1189.13 1261.52 C 1168.77 1244.7 1111.82 1181.81 1110.22 1156.84 C 1109.47 1145.11 1121.32 1137.89 1128.15 1130.09 C 1133.94 1123.47 1136.73 1115.52 1136.09 1106.73 C 1135.04 1092.15 1128.33 1081.73 1115.56 1074.8 C 1111.09 1072.38 1105.92 1070.17 1102.17 1066.7 C 1084.65 1050.5 1115.68 993.684 1114.42 971.129 L 1114.34 969.824 C 1112.89 966.521 1112.82 966.096 1113.49 962.558 z"/>
<path transform="translate(0,0)" fill="rgb(253,251,252)" d="M 632.613 408.301 C 636.603 410.655 638.81 412.396 640.017 417.004 C 643.986 432.153 627.156 453.444 619.544 465.475 C 612.023 477.361 589.199 506.807 591.801 520.527 C 593.862 531.4 606.935 537.294 610.039 548.123 C 614.021 562.016 603.352 578.376 607.36 589.45 C 609.052 594.124 613.11 598.705 616.469 602.27 C 623.985 610.246 632.932 616.859 640.694 624.626 C 663.012 646.957 684.619 669.905 707.593 691.596 C 711.708 695.481 731.293 711.622 733.03 715.329 C 733.956 717.342 734.906 719.272 735.419 721.44 C 732.72 720.552 730.065 719.468 727.195 719.446 C 716.635 716.134 652.971 648.331 639.692 635.636 C 629.632 626.018 618.224 617.856 608.413 607.96 C 602.542 602.099 597.183 595.747 592.393 588.974 C 591.195 575.548 594.51 563.631 597.637 550.711 C 593.427 537.269 579.042 527.652 576.7 515.327 C 573.599 499.006 602.726 462.342 612.234 447.557 C 617.147 439.917 628.071 425.108 626.081 415.957 C 625.475 415.066 624.762 414.503 623.956 413.797 C 622.141 413.399 621.076 413.119 619.306 413.846 C 617.777 414.474 618.194 414.003 617.703 415.255 L 618.323 414.125 L 619.376 414.169 C 621.2 412.347 622.19 411.717 624.722 411.107 C 627.246 410.498 629.308 409.749 631.688 408.712 L 632.613 408.301 z"/>
<path transform="translate(0,0)" fill="rgb(246,243,247)" d="M 1167.49 47.0528 C 1171.77 43.7598 1175.12 41.0891 1180.88 41.6368 C 1192.27 42.7214 1204.13 52.3382 1213.45 58.5214 C 1260.09 89.46 1301.79 125.281 1335.9 169.945 C 1360.95 202.753 1383.66 240.661 1400.7 278.297 C 1403.93 285.441 1406.99 294.978 1412.83 300.458 C 1421.29 308.388 1435.25 307.137 1444.84 313.715 C 1453.71 319.797 1459.48 329.18 1470.91 330.931 C 1479.27 332.21 1488.47 329.767 1497.04 330.229 C 1499.66 330.628 1502.34 330.416 1504.01 332.83 C 1504.21 333.126 1504.25 333.507 1504.37 333.845 C 1489.04 336.966 1472.51 337.343 1456.99 335.554 C 1450.49 330.542 1445.02 324.133 1438.57 319.002 C 1428.51 311.001 1414.72 309.708 1402.97 305.099 L 1401.75 304.614 C 1389.57 288.693 1383.69 267.052 1374.28 249.203 C 1351.06 205.148 1318.28 159.553 1282.49 124.697 C 1266.69 109.312 1197.47 47.0845 1177.47 49.0793 C 1174.7 49.3554 1173.78 50.9016 1172.1 52.8241 C 1170.64 49.5012 1170.57 48.8588 1167.49 47.0528 z"/>
<path transform="translate(0,0)" fill="rgb(246,243,247)" fill-opacity="0.988235" d="M 723.148 772.705 C 724.486 776.476 725.931 779.833 727.888 783.342 C 742.536 814.366 754.318 803.734 776.975 819.365 C 777.056 819.421 777.139 819.472 777.221 819.525 C 788.682 847.761 777.388 900.688 765.671 928.403 C 756.805 949.376 744.833 970.35 729.541 987.323 C 723.802 993.693 717.373 999.417 711.465 1005.64 L 710.211 1005.82 C 690.486 1008.54 660.966 998.776 646.163 1016.76 C 630.268 1036.08 648.814 1051.41 613.931 1069.04 C 610.826 1068.83 608.021 1068.85 605.271 1067.2 C 633.062 1052.23 622.245 1046.19 635.569 1023.36 C 646.057 1005.38 663.075 1001.25 682.596 1001.28 C 688.98 1001.29 696.064 1001.85 702.247 1000.03 C 719.26 995.039 737.86 963.668 745.966 948.425 C 760.929 920.286 779.953 870.661 769.391 838.985 C 765.918 828.571 753.171 826.235 744.274 821.946 C 733.76 816.877 726.237 810.314 722.312 799.024 C 722.232 798.795 722.16 798.563 722.084 798.333 C 722.795 789.873 722.787 781.2 723.148 772.705 z"/>
<path transform="translate(0,0)" fill="rgb(253,251,252)" d="M 1018.35 548.797 C 1020.94 545.926 1023.19 543.621 1024.5 539.899 C 1024.06 536.327 1023.09 534.64 1020.35 532.057 C 1015.17 527.189 1008.13 523.476 1002.11 519.687 C 982.107 507.081 955.229 492.901 941.795 472.975 C 938.417 467.963 936.173 461.79 937.668 455.719 C 938.466 452.476 940.427 449.875 943.291 448.164 C 959.942 438.217 982.027 465.016 993.372 474.924 C 1005.73 485.714 1018.93 497.919 1035.05 502.28 C 1038.31 504.178 1042.14 502.323 1044.76 504.306 L 1045.03 505.54 L 1043.94 505.941 C 1035.29 509.076 1026.16 507.678 1017.96 503.828 C 1003.63 497.102 988.817 484.345 977.437 473.303 C 971.632 467.67 965.795 460.711 958.92 456.406 C 956.149 454.671 952.432 452.979 949.154 454.335 C 948.874 454.451 948.628 454.637 948.365 454.788 C 947.78 457.114 948.287 458.159 949.538 460.201 C 959.534 476.518 984.288 491.981 1001.13 501.07 C 1011.22 506.515 1022.9 510.232 1030.38 519.376 C 1033.72 523.475 1035.4 529.513 1036.61 534.628 C 1031.91 546.633 1025.2 551.438 1014.83 558.502 C 1012.92 558.149 1010.91 558.328 1009.76 556.704 C 1012.44 553.695 1017.09 552.608 1018.35 548.797 z"/>
<path transform="translate(0,0)" fill="rgb(246,243,247)" d="M 505.569 628.905 C 506.663 623.95 511.247 618.739 513.278 613.924 C 519.049 600.237 505.099 589.564 500.251 578.039 C 495.718 567.262 497.812 552.947 502.198 542.405 C 506.405 532.292 514.627 521.801 525.032 517.619 C 525.939 519.883 525.99 519.738 528.22 520.785 C 520.064 524.17 511.597 530.382 508.241 538.813 C 504.598 547.961 505.806 559.639 509.826 568.466 C 514.16 577.98 522.032 585.181 526.098 594.761 C 526.199 595 526.308 595.236 526.414 595.473 C 523.09 610.423 518.035 621.498 510.34 634.751 C 499.864 651.979 489.457 669.527 477.997 686.113 C 466.419 702.868 453.694 718.947 441.257 735.08 C 432.063 747.007 422.75 760.721 410.896 770.105 C 407.399 772.873 402.623 775.018 398.336 776.183 C 394.139 775.676 390.429 775.456 386.794 773.105 L 387.998 772.859 C 393.293 771.725 398.515 770.28 403.016 767.175 C 434.821 745.236 482.226 664.424 505.569 628.905 z"/>
<path transform="translate(0,0)" fill="rgb(224,221,225)" d="M 505.569 628.905 C 505.537 629.191 505.513 629.478 505.474 629.763 C 505.187 631.908 504.71 633.836 503.651 635.739 C 496.268 649.008 486.525 661.396 478.288 674.183 C 473.744 681.237 470.55 689.02 465.783 695.935 C 479.587 684.471 501.052 638.338 510.34 634.751 C 499.864 651.979 489.457 669.527 477.997 686.113 C 466.419 702.868 453.694 718.947 441.257 735.08 C 432.063 747.007 422.75 760.721 410.896 770.105 C 407.399 772.873 402.623 775.018 398.336 776.183 C 394.139 775.676 390.429 775.456 386.794 773.105 L 387.998 772.859 C 393.293 771.725 398.515 770.28 403.016 767.175 C 434.821 745.236 482.226 664.424 505.569 628.905 z"/>
<path transform="translate(0,0)" fill="rgb(253,251,252)" d="M 1606.32 784.951 C 1616.98 771.206 1630.96 755.539 1649.12 753.096 C 1665.3 750.92 1682.71 754.847 1695.56 765.022 C 1705.32 772.751 1712.15 782.949 1713.45 795.501 C 1714.55 806.092 1708.84 816.078 1710.14 826.333 C 1711.19 834.579 1723.41 850.079 1727.67 857.977 C 1734.99 871.552 1737.92 886.928 1748.09 898.891 L 1749.8 902.18 C 1743.95 903.759 1738.91 898.965 1733.13 899.436 C 1721.26 887.524 1721.15 868.286 1713.72 853.739 C 1708.61 843.709 1698.51 836.769 1696.47 825.134 C 1693.7 809.357 1703.05 792.857 1695.39 777.597 C 1690.72 768.283 1679.92 761.719 1670.23 758.771 C 1664.6 757.059 1658.33 756.649 1652.48 756.803 C 1626.27 757.493 1626.3 778.792 1607.7 788.491 L 1606.59 789.061 L 1606.32 784.951 z"/>
<path transform="translate(0,0)" fill="rgb(246,243,247)" fill-opacity="0.980392" d="M 1683.6 1031.01 C 1683.52 1033.27 1683.23 1034.91 1682.26 1036.97 C 1681.31 1038.98 1680.54 1040.95 1679.83 1043.05 L 1680.5 1042.96 C 1683.2 1037.41 1698.68 1015.16 1703.25 1013.06 C 1693.51 1041.25 1647.99 1083.88 1621.68 1096.72 C 1608.13 1103.33 1593.52 1110.8 1578.97 1114.83 C 1547.43 1123.57 1461.98 1129.66 1432.75 1119.29 C 1426.76 1117.16 1422.88 1114.55 1419.25 1109.19 C 1421.09 1110.46 1422.94 1111.72 1424.8 1112.96 C 1429.2 1115.86 1438.77 1120.2 1444.04 1119.12 C 1444.35 1119.06 1444.63 1118.92 1444.93 1118.82 C 1443.09 1115.76 1433.46 1116.64 1433.5 1111.12 C 1437.36 1112.1 1440.88 1114.8 1445.13 1115.73 C 1481.88 1123.73 1529.32 1119.06 1565.96 1111.95 C 1611.68 1103.08 1657.94 1069.21 1683.6 1031.01 z"/>
<path transform="translate(0,0)" fill="rgb(246,243,247)" fill-opacity="0.984314" d="M 1748.09 898.891 C 1754.01 900.867 1760.65 902.594 1766.64 899.734 C 1769.48 898.381 1794.51 875.043 1798.59 870.898 C 1838.35 830.476 1870.95 785.879 1891.26 732.548 C 1895.63 721.068 1898.23 709.148 1902.22 697.568 C 1904.87 721.414 1875.17 777.84 1861.85 798.319 C 1857.2 805.468 1847.12 815.381 1844.96 823.354 C 1851.21 817.175 1870.99 788.543 1874.82 780.832 C 1879.44 771.537 1886.48 752.103 1893.46 745.621 L 1893.65 744.52 C 1895.23 735.617 1900.22 728.268 1902.98 719.831 L 1904.74 720.524 C 1889.7 778.235 1839.89 839.827 1797.63 880.947 C 1789.16 889.19 1779.57 896.119 1771.01 904.249 C 1758.7 906.143 1745.45 908.306 1734.5 900.623 C 1733.77 900.11 1733.68 899.985 1733.13 899.436 C 1738.91 898.965 1743.95 903.759 1749.8 902.18 L 1748.09 898.891 z"/>
<path transform="translate(0,0)" fill="rgb(253,251,252)" fill-opacity="0.984314" d="M 1245.06 1293.39 C 1258.66 1299.07 1270.5 1307.89 1283.8 1313.85 C 1314.54 1327.64 1345.97 1339.84 1376.85 1353.32 C 1383.65 1356.29 1390.72 1358.67 1397.42 1361.85 C 1412.86 1369.16 1429.18 1376.31 1444.04 1384.69 C 1453.01 1389.76 1461.18 1396.39 1470.38 1400.98 C 1469.02 1401.11 1465.75 1400.97 1464.9 1401.97 C 1464.2 1402.8 1464.11 1403.43 1463.9 1404.46 C 1455.66 1402.22 1442.9 1391.88 1434.75 1387.37 C 1422.97 1380.84 1410.65 1374.98 1398.52 1369.14 C 1370.34 1355.56 1340.12 1345.6 1311.46 1333.11 C 1296.08 1326.41 1280.13 1319.49 1265.25 1311.78 C 1255.79 1306.87 1246.97 1300.91 1237.4 1296.14 C 1240.69 1295.63 1242.61 1295.85 1245.06 1293.39 z"/>
<path transform="translate(0,0)" fill="rgb(253,251,252)" fill-opacity="0.988235" d="M 1053.44 1084.78 C 1059.46 1079.07 1068.27 1074.34 1073.11 1067.77 C 1081.05 1056.99 1079.44 1039.84 1081.97 1027.17 C 1084.86 1012.72 1088.29 997.867 1093.8 984.171 C 1098.01 973.729 1102.9 967.014 1113.49 962.558 C 1112.82 966.096 1112.89 966.521 1114.34 969.824 C 1110.87 970.415 1109.42 970.943 1107.28 974.052 C 1090.99 997.771 1094.28 1052.29 1083.42 1066.93 C 1077.26 1075.25 1064.33 1078.73 1056.52 1085.93 L 1053.44 1084.78 z"/>
<path transform="translate(0,0)" fill="rgb(224,221,225)" fill-opacity="0.980392" d="M 1335.14 389.55 L 1339.15 391.206 C 1305.84 411.781 1273.92 434.523 1240.37 454.749 C 1233.53 458.875 1226.13 461.977 1219.16 465.864 C 1212.15 469.773 1205.63 474.542 1198.57 478.364 C 1192.09 481.871 1185.07 484.435 1179.04 488.699 L 1180.2 484.993 L 1178.79 484.905 C 1176.04 486.557 1173.74 488.013 1170.47 488.439 C 1170.25 488.468 1170.03 488.485 1169.81 488.509 C 1177.5 480.518 1224.1 457.104 1238.59 448.461 C 1261.02 435.083 1282.26 419.963 1304.52 406.393 C 1314.38 400.38 1324.98 395.075 1335.14 389.55 z"/>
<path transform="translate(0,0)" fill="url(#Gradient1)" d="M 525.032 517.619 C 534.106 512.455 545.206 512.777 553.766 506.571 C 563.76 499.326 570.456 480.391 576.292 469.633 C 584.833 453.886 597.771 429.469 610.464 417.263 C 616.887 411.087 623.596 408.065 632.613 408.301 L 631.688 408.712 C 629.308 409.749 627.246 410.498 624.722 411.107 C 622.19 411.717 621.2 412.347 619.376 414.169 L 618.323 414.125 L 617.703 415.255 C 618.194 414.003 617.777 414.474 619.306 413.846 C 621.076 413.119 622.141 413.399 623.956 413.797 C 624.762 414.503 625.475 415.066 626.081 415.957 C 619.099 416.769 616.488 419.507 612.345 424.78 C 601.042 439.168 591.006 458.054 582.63 474.333 C 578.164 483.011 574.3 492.554 568.77 500.605 C 565.982 504.664 562.844 508.212 558.576 510.776 C 549.213 516.403 538.325 517.212 528.22 520.785 C 525.99 519.738 525.939 519.883 525.032 517.619 z"/>
<path transform="translate(0,0)" fill="rgb(246,243,247)" fill-opacity="0.984314" d="M 1169.81 488.509 C 1170.03 488.485 1170.25 488.468 1170.47 488.439 C 1173.74 488.013 1176.04 486.557 1178.79 484.905 L 1180.2 484.993 L 1179.04 488.699 C 1169.97 497.213 1141.61 511.455 1129.4 511.574 C 1112.95 511.733 1102.25 487.053 1076.26 492.098 C 1064.7 494.344 1055.94 502.51 1045.03 505.54 L 1044.76 504.306 C 1042.14 502.323 1038.31 504.178 1035.05 502.28 C 1048.79 501.259 1060.76 491.259 1074.23 487.845 C 1094.89 482.604 1104.14 490.869 1121.04 500.941 C 1139.98 512.229 1152.08 492.867 1169.02 488.687 C 1169.28 488.623 1169.55 488.568 1169.81 488.509 z"/>
<path transform="translate(0,0)" fill="rgb(246,243,247)" fill-opacity="0.988235" d="M 17.0711 370.163 C 19.9208 335.396 40.32 265.268 61.6992 237.924 C 66.7904 231.413 72.7331 226.465 81.1398 225.407 C 70.1087 232.864 57.5381 241.897 54.7087 256.093 C 54.5928 256.675 54.5983 257.511 54.5806 258.066 L 55.9911 258.096 C 57.0868 255.812 57.027 255.022 59.4225 254.003 C 56.2437 264.953 50.5876 275.19 46.3207 285.735 C 38.6204 304.767 32.8666 325.37 29.0515 345.497 C 28.521 341.006 28.0791 336.497 27.1448 332.069 C 24.6428 342.204 25.2457 363.501 17.0711 370.163 z"/>
<path transform="translate(0,0)" fill="rgb(224,221,225)" d="M 1464.7 794.147 C 1472.68 788.13 1478.62 782.31 1488.45 779.211 C 1511.15 772.053 1521.18 781.298 1539.29 790.512 C 1553.71 797.851 1569.14 792.378 1584 789.475 C 1591.56 787.999 1598.92 787.318 1606.32 784.951 L 1606.59 789.061 C 1604.14 790.594 1601.76 791.998 1598.94 792.727 C 1593.86 794.038 1588.25 793.635 1583.04 794.349 C 1569.77 796.165 1555.06 801.086 1541.67 797.921 C 1533.54 795.999 1526.98 790.255 1519.85 786.188 C 1507.41 779.084 1491.76 779.611 1479.48 786.799 C 1475.12 789.356 1471.02 792.69 1467.44 796.25 L 1464.7 794.147 z"/>
<path transform="translate(0,0)" fill="rgb(246,243,247)" fill-opacity="0.980392" d="M 1375.28 301.678 C 1377.6 303.939 1378.36 304.697 1378.66 308.105 C 1378.9 310.919 1378.16 313.728 1378.5 316.567 C 1382.18 314.389 1383.48 310.062 1387.52 307.782 C 1383.49 320.172 1370.2 325.555 1365.43 337.237 C 1360.59 349.062 1367.69 361.803 1360.59 373.683 C 1355.45 382.27 1345.5 384.006 1339.15 391.206 L 1335.14 389.55 C 1341.06 382.544 1349.37 377.975 1354.08 369.936 C 1360.1 359.669 1354.57 345.289 1360.49 334.122 C 1363.38 328.682 1368.34 324.327 1372.02 319.407 C 1376.32 313.651 1376.29 308.403 1375.28 301.678 z"/>
<path transform="translate(0,0)" fill="rgb(224,221,225)" fill-opacity="0.984314" d="M 898.486 583.008 C 903.235 581.587 908.372 581.357 913.251 580.381 C 923.124 578.364 932.912 575.951 942.591 573.149 C 956.122 569.245 969.377 564.402 982.937 560.604 C 989.707 558.708 997.414 558.094 1003.94 555.733 C 1009.08 553.872 1012.83 550.283 1018.35 548.797 C 1017.09 552.608 1012.44 553.695 1009.76 556.704 C 1010.91 558.328 1012.92 558.149 1014.83 558.502 C 1004.38 561.942 993.148 562.745 982.52 565.61 C 968.983 569.259 956.017 574.866 942.571 578.781 C 929.799 582.498 916.772 584.163 903.681 586.238 C 904.141 584.565 904.272 584.551 905.672 583.496 L 898.486 583.008 z"/>
<path transform="translate(0,0)" fill="rgb(246,243,247)" fill-opacity="0.976471" d="M 93.3727 558.869 C 107.897 556.905 120.545 547.446 133.249 540.695 C 146.31 533.753 172.653 520.697 186.233 517.327 C 186.368 519.797 186.386 520.995 184.933 523.154 C 172.625 527.756 161.597 534.16 149.819 539.795 C 143.278 542.925 136.362 545.311 129.893 548.573 C 118.764 554.184 110.714 561.12 98.0246 563.11 L 99.9369 560.325 C 98.0005 560.281 96.5545 560.233 94.7486 559.472 C 94.2871 559.278 93.8313 559.07 93.3727 558.869 z"/>
<path transform="translate(0,0)" fill="rgb(246,243,247)" d="M 750.194 572.305 C 763.789 563.758 779.772 562.38 795.361 565.804 C 818.578 570.902 819.073 587.632 834.082 592.857 C 834.833 593.758 835.824 594.664 836.181 595.797 C 834.724 596.601 834.021 596.506 832.376 596.618 C 830.262 596.762 828.765 596.942 826.842 597.798 C 813.332 592.506 807.384 575.281 793.271 569.525 C 780.85 564.459 765.728 567.88 753.901 572.821 L 750.194 572.305 z"/>
<path transform="translate(0,0)" fill="rgb(224,221,225)" fill-opacity="0.988235" d="M 826.154 184.074 C 822.972 173.022 822.32 161.712 825.875 150.637 C 830.227 137.081 841.623 127.63 854.06 121.504 C 867.268 114.997 883.362 114.386 897.259 119.071 L 891.835 119.687 C 890.98 120.999 890.709 121.134 890.594 122.765 C 876.103 119.685 863.631 120.113 850.931 128.519 C 842.668 133.987 835.816 141.672 832.788 151.224 L 832.664 150.187 C 832.339 147.243 832.262 145.137 833.224 142.325 L 832.206 142.844 L 832.983 142.435 C 832.765 142.707 832.544 142.977 832.329 143.252 C 823.055 155.141 827.659 170.351 826.154 184.074 z"/>
<path transform="translate(0,0)" fill="rgb(224,221,225)" fill-opacity="0.952941" d="M 334.052 837.526 C 332.204 831.826 331.781 825.821 331.885 819.858 C 332.121 806.437 336.899 794.646 346.708 785.381 C 358.812 773.948 370.919 772.634 386.794 773.105 C 390.429 775.456 394.139 775.676 398.336 776.183 L 397.25 776.337 C 379.537 778.758 359.577 774.525 346.989 790.681 C 340.227 799.361 339.03 810.698 339.512 821.32 C 336.649 817.918 336.552 814.976 336.562 810.555 C 335.167 819.601 334.883 828.448 334.052 837.526 z"/>
<path transform="translate(0,0)" fill="rgb(246,243,247)" fill-opacity="0.988235" d="M 1053.44 1084.78 L 1056.52 1085.93 C 1038.34 1112.39 1069.34 1132.4 1023.27 1151.59 C 1023.88 1148.15 1027.5 1147.23 1029 1143.52 C 1032.12 1137.22 1039.94 1137.19 1043.1 1126.25 C 1047.15 1112.27 1042.86 1096.37 1053.44 1084.78 z"/>
<path transform="translate(0,0)" fill="rgb(224,221,225)" fill-opacity="0.984314" d="M 472.726 1088.34 C 497.165 1089.11 520.133 1084.62 544.251 1081.66 L 544.684 1086.51 C 534.91 1092.02 475.418 1095.54 461.55 1093.13 C 468.433 1092.22 475.159 1092.83 482.071 1091.43 L 482.089 1090.7 C 479.408 1090.32 476.48 1090.09 473.996 1088.96 C 473.568 1088.76 473.149 1088.55 472.726 1088.34 z"/>
<path transform="translate(0,0)" fill="rgb(246,243,247)" fill-opacity="0.984314" d="M 834.082 592.857 C 854.133 595.427 877.907 586.583 898.486 583.008 L 905.672 583.496 C 904.272 584.551 904.141 584.565 903.681 586.238 C 889.374 590.487 839.399 602.571 826.842 597.798 C 828.765 596.942 830.262 596.762 832.376 596.618 C 834.021 596.506 834.724 596.601 836.181 595.797 C 835.824 594.664 834.833 593.758 834.082 592.857 z"/>
<path transform="translate(0,0)" fill="rgb(246,243,247)" fill-opacity="0.960784" d="M 710.039 733.127 C 710.25 733.19 710.464 733.244 710.672 733.316 C 716.131 735.187 724.321 743.491 726.921 748.791 C 727.873 750.733 728.155 753.22 728.522 755.337 C 729.265 753.749 729.957 752.139 730.792 750.598 C 732.991 746.541 732.12 740.351 731.726 735.875 C 735.206 742.275 734.8 746.321 732.796 753.078 C 729.541 764.053 726.827 771.732 727.888 783.342 C 725.931 779.833 724.486 776.476 723.148 772.705 C 722.787 781.2 722.795 789.873 722.084 798.333 C 717.107 782.024 722.325 769.595 723.468 753.579 C 724.13 744.302 715.576 739.509 710.039 733.127 z"/>
<path transform="translate(0,0)" fill="rgb(246,243,247)" d="M 605.271 1067.2 C 608.021 1068.85 610.826 1068.83 613.931 1069.04 C 596.324 1075.88 576.106 1079.04 557.717 1083.59 C 553.476 1084.64 548.751 1085.02 544.684 1086.51 L 544.251 1081.66 C 563.813 1075.26 585.249 1072.26 605.271 1067.2 z"/>
<path transform="translate(0,0)" fill="rgb(246,243,247)" fill-opacity="0.988235" d="M 873.757 1196.14 C 873.296 1194.22 872.831 1192.26 872.889 1190.27 C 873.03 1185.47 874.727 1180.52 878.529 1177.44 C 888.674 1169.21 906.481 1172.64 918.314 1174.26 C 921.37 1176.31 924.295 1174.32 927.116 1176.15 C 925.888 1176.9 924.687 1177.46 923.36 1178.01 L 922.837 1179.64 C 914.495 1180.29 890.096 1176.35 884.86 1182.42 C 884.341 1183.03 884.213 1183.26 883.714 1183.98 L 882.534 1181.98 C 883.259 1179.66 884.542 1178.91 886.753 1177.81 C 887.467 1177.46 888.279 1177.32 888.982 1176.95 C 889.243 1176.81 889.447 1176.58 889.679 1176.4 L 884.851 1176.52 C 874.409 1185.09 877.958 1185.14 873.757 1196.14 z"/>
<path transform="translate(0,0)" fill="rgb(224,221,225)" d="M 918.314 1174.26 C 935.051 1173.52 953.559 1171.77 969.53 1166.85 C 972.399 1167.19 976.484 1167.14 978.887 1168.78 C 968.492 1173.19 957.794 1176.9 946.47 1177.74 C 938.542 1178.33 930.674 1178.15 922.837 1179.64 L 923.36 1178.01 C 924.687 1177.46 925.888 1176.9 927.116 1176.15 C 924.295 1174.32 921.37 1176.31 918.314 1174.26 z"/>
<path transform="translate(0,0)" fill="rgb(246,243,247)" fill-opacity="0.984314" d="M 59.34 539.297 C 61.0448 543.448 62.8651 547.345 65.3095 551.122 C 74.4692 553.961 84.4946 555.539 93.3727 558.869 C 93.8313 559.07 94.2871 559.278 94.7486 559.472 C 96.5545 560.233 98.0005 560.281 99.9369 560.325 L 98.0246 563.11 C 90.6173 566.097 79.1075 562.285 71.5966 560.304 C 63.9659 558.291 54.3792 556.607 50.1373 549.325 C 52.3005 550.107 54.3028 551.281 56.4301 552.162 C 59.6104 553.479 60.8487 554.33 64.0976 553.004 L 65.2934 554.373 L 65.3745 554.322 C 63.1251 551.926 60.1964 549.252 59.1102 546.088 C 58.2312 543.528 58.2923 541.7 59.34 539.297 z"/>
<path transform="translate(0,0)" fill="rgb(224,221,225)" fill-opacity="0.980392" d="M 1029 1143.52 C 1027.5 1147.23 1023.88 1148.15 1023.27 1151.59 C 1009.93 1160.94 994.768 1165.68 978.887 1168.78 C 976.484 1167.14 972.399 1167.19 969.53 1166.85 C 990.388 1162.78 1010.2 1153.05 1029 1143.52 z"/>
<path transform="translate(0,0)" fill="rgb(246,243,247)" fill-opacity="0.964706" d="M 419.649 1084.78 C 437.434 1085.57 454.822 1088.17 472.726 1088.34 C 473.149 1088.55 473.568 1088.76 473.996 1088.96 C 476.48 1090.09 479.408 1090.32 482.089 1090.7 L 482.071 1091.43 C 475.159 1092.83 468.433 1092.22 461.55 1093.13 C 451.303 1093.65 440.583 1091.35 430.341 1090.5 C 423.712 1089.95 417.109 1090.33 410.54 1089.08 C 414.632 1088.49 418.761 1089.47 422.209 1087.09 L 422.466 1087.35 L 419.649 1084.78 z"/>
<path transform="translate(0,0)" fill="rgb(180,180,185)" d="M 272.896 492.216 C 285.667 490.322 296.622 485.923 309.845 487.609 C 311.007 489.808 311.889 491.337 313.831 492.918 C 301.007 492.892 287.931 495.251 275.295 497.199 L 273.009 492.724 L 272.896 492.216 z"/>
<path transform="translate(0,0)" fill="rgb(224,221,225)" fill-opacity="0.988235" d="M 201.537 513.183 C 215.191 508.076 228.677 503.03 242.695 498.982 C 245.055 499.088 247.412 499.238 249.766 499.432 C 250.478 500.996 250.243 500.791 249.767 502.307 C 237.026 504.995 223.107 510.22 211.517 516.173 L 211.629 514.28 C 209.824 512.535 204.141 513.216 201.537 513.183 z"/>
<path transform="translate(0,0)" fill="rgb(224,221,225)" fill-opacity="0.956863" d="M 1287.85 798.097 C 1303.83 790.956 1317.24 786.641 1335.06 789.891 L 1330.17 791.585 C 1336.12 794.174 1345.27 795.833 1348.01 802.513 C 1348.09 802.703 1348.13 802.906 1348.19 803.103 C 1339.13 798.97 1335.26 795.248 1324.54 793.83 C 1314.05 792.442 1299.16 793.658 1290.53 800.354 L 1287.85 798.097 z"/>
<path transform="translate(0,0)" fill="rgb(224,221,225)" fill-opacity="0.968627" d="M 749.828 727.835 C 759.839 729.471 770.002 728.024 779.79 729.471 L 778.465 731.627 L 781.048 734.059 C 768.677 734.027 750.12 737.529 740.169 729.443 C 743.558 729.009 748.888 731.288 752.333 732.123 L 752.99 731.498 C 752.022 730.144 750.981 729.027 749.828 727.835 z"/>
<path transform="translate(0,0)" fill="rgb(253,251,252)" fill-opacity="0.968627" d="M 1917.2 603.711 C 1919.52 618.587 1920.08 653.54 1917.5 668.37 C 1913.39 658.593 1915.43 614.555 1917.2 603.711 z"/>
<path transform="translate(0,0)" fill="rgb(224,221,225)" fill-opacity="0.984314" d="M 186.233 517.327 C 191.216 515.666 196.418 514.362 201.537 513.183 C 204.141 513.216 209.824 512.535 211.629 514.28 L 211.517 516.173 C 203 520.151 193.651 519.973 184.933 523.154 C 186.386 520.995 186.368 519.797 186.233 517.327 z"/>
<path transform="translate(0,0)" fill="rgb(246,243,247)" fill-opacity="0.988235" d="M 733.03 715.329 C 738.656 719.252 744.944 723.011 749.828 727.835 C 750.981 729.027 752.022 730.144 752.99 731.498 L 752.333 732.123 C 748.888 731.288 743.558 729.009 740.169 729.443 C 735.825 726.136 731.5 722.804 727.195 719.446 C 730.065 719.468 732.72 720.552 735.419 721.44 C 734.906 719.272 733.956 717.342 733.03 715.329 z"/>
<path transform="translate(0,0)" fill="rgb(253,251,252)" fill-opacity="0.968627" d="M 1495.81 342.927 C 1515.85 340.028 1543.1 338.749 1563.19 341.899 C 1555.95 344.632 1505.35 344.291 1495.81 342.927 z"/>
<path transform="translate(0,0)" fill="rgb(246,243,247)" d="M 242.695 498.982 C 252.792 496.84 262.788 494.22 273.009 492.724 L 275.295 497.199 C 266.763 498.788 258.253 500.491 249.767 502.307 C 250.243 500.791 250.478 500.996 249.766 499.432 C 247.412 499.238 245.055 499.088 242.695 498.982 z"/>
<path transform="translate(0,0)" fill="rgb(253,251,252)" d="M 912.297 5.71403 C 917.481 6.28183 922.055 7.82866 925.476 12.0191 C 927.486 14.4817 928.272 17.5172 927.783 20.6411 C 927.066 25.2126 924.15 28.9934 920.365 31.5212 C 909.538 38.7507 892.762 35.5273 880.375 36.2522 C 872.375 36.7204 864.399 37.9612 856.508 39.3115 C 840.589 42.1584 824.783 45.5976 809.121 49.6217 C 791.474 54.332 704.222 80.4282 701.067 97.387 C 698.952 108.754 705.932 119.632 702.411 131.384 C 698.538 144.31 680.361 158.499 680.537 169.212 C 680.784 184.23 693.004 198.981 697.011 213.432 C 704.421 240.153 705.791 315.301 681.563 332.797 C 677.169 335.97 671.199 337.334 665.874 336.117 C 662.762 335.405 660.198 333.526 658.702 330.69 C 651.807 317.626 664.298 291.873 666.83 277.755 C 668.24 269.892 668.254 261.336 667.945 253.369 C 667.577 243.836 665.874 234.464 664.163 225.097 C 659.977 202.182 654.662 182.555 631.412 173.362 C 620.172 168.918 609.704 166.061 601.466 156.558 C 585.301 137.91 597.814 121.792 566.32 110.272 C 550.917 104.638 534.315 101.445 518.235 98.4383 C 450.389 85.7499 383.029 86.9433 316.566 106.598 C 303.239 110.539 288.964 114.756 276.392 120.696 C 262.166 127.555 248.262 135.062 234.723 143.194 C 219.59 152.457 203.454 164.985 186.562 170.472 C 182.555 171.774 179.446 171.897 175.484 170.41 C 172.778 169.395 170.476 167.743 169.242 165.059 C 167.436 161.13 168.413 155.903 170.153 152.127 C 171.952 148.223 175.346 144.7 178.706 142.084 C 179.809 143.026 181.024 143.922 181.942 145.047 C 181.303 146.15 180.584 147.3 180.124 148.49 C 179.233 150.794 179.397 151.743 180.346 153.955 C 183.995 154.934 186.155 154.251 189.514 152.562 C 201.123 146.727 211.716 137.6 222.858 130.738 C 242.225 118.811 262.387 109.45 283.214 100.391 C 298.078 93.9258 313.753 89.6024 329.443 85.6513 C 401.379 67.8263 476.705 68.9275 548.09 88.8477 C 558.796 91.8017 569.999 94.6207 580.315 98.7786 C 600.15 106.773 597.041 120.862 604.403 137.388 C 611.98 154.395 627.174 154.115 642.431 160.198 C 650.249 163.309 656.854 168.862 661.262 176.029 C 672.852 194.498 679.722 242.826 677.911 264.729 C 677.435 270.48 676.951 276.427 675.643 282.063 C 673.712 290.385 664.657 310.893 667.983 318.45 L 670.811 319.138 C 672.918 318.492 673.966 317.73 675.209 315.871 C 686.296 299.282 687.777 248.343 685.78 228.577 C 684.97 220.558 682.898 212.507 680.636 204.775 C 676.824 191.74 667.872 179.335 665.885 165.983 C 663.78 151.831 675.372 144.201 682.849 134.195 C 691.968 121.993 685.782 105.523 683.787 91.7218 C 685.444 87.59 686.854 83.8551 690.21 80.7584 C 698.295 73.2983 708.879 69.8158 718.723 65.4002 C 754.822 49.2082 791.97 34.0557 831.088 26.8353 C 850.443 23.2627 870.564 20.1925 890.165 18.4117 C 895.948 17.8863 906.2 19.1125 910.905 15.8937 L 910.851 14.3281 L 908.121 12.2932 L 904.473 8.45408 L 904.857 7.23011 L 912.297 5.71403 z"/>
<path transform="translate(0,0)" fill="rgb(246,243,247)" d="M 688.495 66.4313 C 696.067 62.7448 703.185 57.7317 710.836 53.9615 C 720.202 49.3463 730.074 46.2953 739.721 42.3727 C 753.154 36.9101 767.443 28.0465 781.786 25.9068 C 783.511 26.2857 785 26.7893 786.674 27.2889 C 787.111 27.4192 787.559 27.5058 788.002 27.6142 L 785.974 28.4712 L 786.802 30.2375 C 772.181 34.3563 759.426 40.1981 745.451 45.9149 C 738.614 48.7115 731.452 50.6681 724.578 53.3652 C 714.146 57.4583 703.614 63.3994 694.057 69.25 C 685.304 75.0063 671.849 77.9752 661.505 75.4814 C 661.249 75.4198 661.009 75.3074 660.76 75.2203 C 660.241 72.4626 657.431 73.5811 656.296 71.6704 L 656.869 72.1908 C 658.977 70.6002 662.784 71.046 665.448 70.9051 C 665.741 70.9371 666.035 70.9632 666.328 71.0011 C 674.933 72.1171 680.599 69.6548 688.495 66.4313 z"/>
<path transform="translate(0,0)" fill="rgb(224,221,225)" d="M 384.921 63.1503 C 402.58 59.0984 494.517 57.8049 508.776 66.4667 L 506.816 68.51 L 507.176 71.1494 C 503.427 70.5742 499.459 70.8295 495.654 70.4025 C 474.39 68.0165 454.744 66.4844 433.244 66.7535 C 421.235 60.1854 399.338 67.1818 384.921 63.1503 z"/>
<path transform="translate(0,0)" fill="rgb(246,243,247)" d="M 507.176 71.1494 L 506.816 68.51 L 508.776 66.4667 C 514.551 67.949 520.305 67.9754 526.125 69.15 C 538.625 71.6728 551.037 75.2428 563.312 78.6842 C 571.971 81.112 583.17 87.3291 591.864 87.4617 C 599.401 87.5767 605.448 83.4897 611.837 80.0774 L 613.484 82.3385 C 606.978 88.3859 602.168 91.5521 593.641 94.2536 C 579.067 91.6654 566.263 85.268 552.151 81.3707 C 537.397 77.2961 522.042 75.0182 507.176 71.1494 z"/>
<path transform="translate(0,0)" fill="rgb(180,180,185)" d="M 219.976 117.133 C 227.09 110.991 236.051 108.702 244.49 105.013 C 251.704 101.861 258.547 97.8909 265.761 94.7209 C 285.446 86.071 306.762 78.3078 327.478 72.6935 L 333.067 76.1778 C 320.992 79.1778 309.924 83.5099 298.248 87.6771 C 287.501 91.5127 276.306 94.4893 265.756 98.8138 C 253.603 103.796 231.992 115.11 220.051 121.954 L 219.976 117.133 z"/>
<path transform="translate(0,0)" fill="rgb(180,180,185)" d="M 781.786 25.9068 C 807.622 20.03 833.02 11.3846 859.459 8.71963 L 858.754 13.5151 C 854.689 15.3376 792.382 29.7658 786.802 30.2375 L 785.974 28.4712 L 788.002 27.6142 C 787.559 27.5058 787.111 27.4192 786.674 27.2889 C 785 26.7893 783.511 26.2857 781.786 25.9068 z"/>
<path transform="translate(0,0)" fill="rgb(246,243,247)" d="M 327.478 72.6935 C 345.509 66.841 366.133 65.6109 384.921 63.1503 C 399.338 67.1818 421.235 60.1854 433.244 66.7535 C 407.514 65.9258 382.54 68.582 357.083 72.196 C 349.143 73.3232 340.954 75.3906 333.067 76.1778 L 327.478 72.6935 z"/>
<path transform="translate(0,0)" fill="rgb(224,221,225)" fill-opacity="0.976471" d="M 912.413 5.12061 L 912.297 5.71403 L 904.857 7.23011 L 904.473 8.45408 L 908.121 12.2932 C 891.388 10.7397 875.382 10.5524 858.754 13.5151 L 859.459 8.71963 L 873.211 6.79401 C 876.663 6.84485 880.346 5.89338 883.862 5.74914 C 893.362 5.35945 902.903 5.38899 912.413 5.12061 z"/>
<path transform="translate(0,0)" fill="rgb(180,180,185)" fill-opacity="0.980392" d="M 219.976 117.133 L 220.051 121.954 C 207.497 127.508 194.181 136.039 183.232 144.327 C 182.522 144.864 182.815 144.674 181.942 145.047 C 181.024 143.922 179.809 143.026 178.706 142.084 C 189.361 130.517 205.662 123.043 219.976 117.133 z"/>
<path transform="translate(0,0)" fill="rgb(180,180,185)" d="M 611.837 80.0774 C 612.944 78.2757 616.223 76.2764 618.029 75.0762 C 629.712 67.3133 651.998 68.2675 665.448 70.9051 C 662.784 71.046 658.977 70.6002 656.869 72.1908 L 656.296 71.6704 C 657.431 73.5811 660.241 72.4626 660.76 75.2203 C 640.88 73.6328 630.943 71.3842 613.484 82.3385 L 611.837 80.0774 z"/>
</svg>